<svg width="21" height="20" viewBox="0 0 21 20" fill="none" xmlns="http://www.w3.org/2000/svg">
<g clip-path="url(#clip0_1_323)">
<circle opacity="0.8" cx="12.0415" cy="12.5" r="7.5" fill="#FFA51E"/>
<path d="M20.375 9.58335C20.3746 9.00866 20.2043 8.44691 19.8857 7.96863C19.5671 7.49035 19.1143 7.11684 18.5842 6.89501C18.2458 4.96365 17.2373 3.21344 15.7359 1.95224C14.2346 0.69104 12.3366 -0.000366211 10.3758 -0.000366211C8.41506 -0.000366211 6.51707 0.69104 5.01573 1.95224C3.51438 3.21344 2.50584 4.96365 2.1675 6.89501C1.56251 7.14954 1.06104 7.60069 0.744208 8.17552C0.427371 8.75034 0.313682 9.41523 0.421524 10.0627C0.529367 10.7101 0.852435 11.3022 1.33849 11.7433C1.82454 12.1844 2.44517 12.4487 3.1 12.4933C3.53041 13.4067 4.11413 14.2396 4.82584 14.9558C3.78299 16.0945 3.12116 17.53 2.9325 19.0625C2.91885 19.1711 2.92673 19.2814 2.95569 19.387C2.98466 19.4925 3.03414 19.5914 3.10131 19.6778C3.16848 19.7642 3.25203 19.8366 3.34718 19.8907C3.44233 19.9449 3.54721 19.9798 3.65584 19.9933C3.69013 19.9975 3.72463 19.9998 3.75917 20C3.96198 19.9998 4.15774 19.9256 4.30977 19.7914C4.46179 19.6571 4.55965 19.4721 4.585 19.2708C4.73609 18.0626 5.26551 16.9332 6.0975 16.0442C7.33845 16.9602 8.83292 17.4688 10.375 17.5C11.9125 17.4685 13.4026 16.962 14.6408 16.05C15.4692 16.9375 15.9965 18.0637 16.1475 19.2683C16.1727 19.4697 16.2704 19.655 16.4225 19.7894C16.5745 19.9238 16.7704 19.9981 16.9733 19.9983C17.0082 19.9982 17.0429 19.9959 17.0775 19.9917C17.2967 19.9642 17.4961 19.8508 17.6317 19.6764C17.7673 19.502 17.8282 19.2809 17.8008 19.0617C17.6135 17.5331 16.955 16.1007 15.9167 14.9633C16.6323 14.2449 17.2192 13.4089 17.6517 12.4917C18.3898 12.4426 19.0817 12.115 19.5873 11.575C20.093 11.035 20.3745 10.3231 20.375 9.58335ZM17.2483 10.8108C17.054 10.7752 16.8533 10.8104 16.6825 10.9099C16.5118 11.0094 16.3823 11.1667 16.3175 11.3533C15.5542 13.5183 12.9833 15.8333 10.375 15.8333C7.76667 15.8333 5.19584 13.5167 4.4325 11.3517C4.36753 11.1651 4.23802 11.0079 4.06733 10.9084C3.89665 10.8089 3.69603 10.7737 3.50167 10.8092C3.43242 10.8228 3.3622 10.8308 3.29167 10.8333C2.98233 10.8297 2.68534 10.7114 2.45816 10.5014C2.23097 10.2914 2.08972 10.0046 2.06173 9.69653C2.03374 9.38843 2.121 9.0809 2.30662 8.83341C2.49225 8.58593 2.76306 8.41606 3.06667 8.35668C3.24385 8.32456 3.40586 8.23592 3.52844 8.10402C3.65103 7.97212 3.72759 7.80407 3.74667 7.62501C3.85796 6.55944 4.22567 5.53667 4.81836 4.64417C5.41104 3.75166 6.21106 3.01597 7.15 2.50001C7.01355 3.0301 7.00726 3.58531 7.13167 4.11835C7.30109 4.82326 7.69572 5.45372 8.25572 5.91415C8.81573 6.37459 9.51058 6.6399 10.2349 6.66986C10.9593 6.69982 11.6737 6.4928 12.2698 6.08019C12.8659 5.66757 13.3113 5.07186 13.5383 4.38335C13.5754 4.26104 13.5831 4.13173 13.5608 4.00589C13.5386 3.88005 13.4871 3.7612 13.4104 3.65897C13.3337 3.55674 13.2341 3.47399 13.1195 3.41742C13.0049 3.36086 12.8786 3.33205 12.7508 3.33335H12.625C12.4717 3.33837 12.324 3.39203 12.2033 3.48656C12.0825 3.58109 11.995 3.7116 11.9533 3.85918C11.8565 4.15052 11.681 4.40945 11.4463 4.60739C11.2116 4.80533 10.9268 4.9346 10.6233 4.98093C10.3198 5.02726 10.0094 4.98885 9.72632 4.86994C9.44325 4.75104 9.19853 4.55625 9.01916 4.30708C8.83978 4.0579 8.73272 3.76402 8.70979 3.45786C8.68685 3.15169 8.74893 2.84514 8.88918 2.57202C9.02942 2.2989 9.24239 2.06983 9.50457 1.91007C9.76676 1.75032 10.068 1.66609 10.375 1.66668C12.0215 1.66274 13.6109 2.26993 14.8355 3.37067C16.06 4.47141 16.8325 5.98738 17.0033 7.62501C17.0224 7.80407 17.099 7.97212 17.2216 8.10402C17.3441 8.23592 17.5062 8.32456 17.6833 8.35668C17.987 8.41606 18.2578 8.58593 18.4434 8.83341C18.629 9.0809 18.7163 9.38843 18.6883 9.69653C18.6603 10.0046 18.519 10.2914 18.2918 10.5014C18.0647 10.7114 17.7677 10.8297 17.4583 10.8333C17.3879 10.8314 17.3176 10.8239 17.2483 10.8108Z" fill="#266578"/>
<path d="M8.29167 10.8333C8.98203 10.8333 9.54167 10.2737 9.54167 9.58331C9.54167 8.89296 8.98203 8.33331 8.29167 8.33331C7.60132 8.33331 7.04167 8.89296 7.04167 9.58331C7.04167 10.2737 7.60132 10.8333 8.29167 10.8333Z" fill="#266578"/>
<path d="M12.4583 10.8333C13.1487 10.8333 13.7083 10.2737 13.7083 9.58331C13.7083 8.89296 13.1487 8.33331 12.4583 8.33331C11.768 8.33331 11.2083 8.89296 11.2083 9.58331C11.2083 10.2737 11.768 10.8333 12.4583 10.8333Z" fill="#266578"/>
</g>
<defs>
<clipPath id="clip0_1_323">
<rect width="20" height="20" fill="white" transform="translate(0.375)"/>
</clipPath>
</defs>
</svg>
