<svg width="16" height="15" viewBox="0 0 16 15" fill="none" xmlns="http://www.w3.org/2000/svg">
<path d="M7.91392 0.0555725H8.53455C8.71882 0.0883563 8.90648 0.108328 9.08698 0.156185C10.6124 0.559764 11.6121 1.52142 11.9565 3.05811C12.3013 4.59706 11.8009 5.88995 10.592 6.90474C10.5649 6.92772 10.5306 6.94204 10.4782 6.97294C10.5649 7.00234 10.6048 7.01515 10.6444 7.02947C12.1589 7.56305 13.3809 8.48288 14.2875 9.81043C14.364 9.92235 14.4081 10.0795 14.4077 10.2155C14.407 10.4589 14.2239 10.6541 13.9974 10.7114C13.7498 10.7744 13.526 10.6786 13.3568 10.4371C11.8683 8.31067 9.28783 7.29324 6.78345 7.93648C4.31826 8.56955 2.7616 10.1579 2.15114 12.6442C2.05694 13.0281 2.33051 13.3624 2.72693 13.3684C2.94323 13.3718 3.15953 13.3692 3.37582 13.3692C3.60003 13.3692 3.82425 13.3692 4.05449 13.3692C4.14078 12.2805 4.55943 11.3573 5.33908 10.6119C6.1225 9.86281 7.06418 9.47318 8.14906 9.45132C9.12278 9.43172 10.0034 9.72188 10.771 10.3214C11.7575 11.092 12.287 12.1158 12.3955 13.3692C12.8341 13.3692 13.2663 13.3707 13.6982 13.3688C14.1116 13.3669 14.3682 13.0602 14.3022 12.6517C14.2514 12.3355 14.4488 12.0454 14.7518 11.9907C15.06 11.9353 15.3438 12.1302 15.412 12.4441C15.4218 12.4893 15.4338 12.5345 15.4448 12.5793V13.0025C15.4357 13.0285 15.4229 13.0534 15.418 13.0801C15.2692 13.9005 14.5762 14.4951 13.7445 14.4959C10.0648 14.4989 6.38552 14.5 2.70583 14.4959C1.62208 14.4947 0.805126 13.4984 1.04064 12.4399C1.53504 10.2174 2.78873 8.5541 4.79834 7.47563C5.16009 7.28156 5.54784 7.13649 5.92504 6.96767C5.91148 6.95523 5.88925 6.93187 5.86475 6.9119C4.78326 6.02297 4.26099 4.87931 4.42038 3.48656C4.6005 1.91256 5.47851 0.840875 6.9583 0.280537C7.26164 0.165605 7.59438 0.128676 7.91355 0.0559493L7.91392 0.0555725ZM10.9319 3.89353C10.9327 2.40131 9.71816 1.18454 8.22631 1.18379C6.73371 1.18303 5.51732 2.39754 5.51656 3.88939C5.51581 5.38124 6.73107 6.59838 8.22217 6.59951C9.71402 6.60026 10.9312 5.385 10.9323 3.89353H10.9319ZM6.32523 11.2514C6.70658 11.5269 7.07737 11.7971 7.45081 12.0638C7.94068 12.4139 8.47765 12.4154 8.96866 12.0699C9.32136 11.8212 9.67257 11.5702 10.0241 11.3196C10.0558 11.297 10.0844 11.2706 10.1161 11.2443C9.07643 10.3617 7.3566 10.3625 6.32561 11.2518L6.32523 11.2514ZM10.8694 12.1166C10.2061 12.5187 9.65862 13.0737 8.91477 13.3597H11.2552C11.2198 12.9125 11.0902 12.5059 10.8694 12.1166ZM5.1925 13.3639H7.53182C6.77252 13.0858 6.23517 12.5172 5.57723 12.12C5.35717 12.5051 5.22905 12.9121 5.1925 13.3639Z" fill="#FFA51E"/>
<path d="M7.19176 0.0555573H7.81239C7.99665 0.088341 8.18431 0.108313 8.36481 0.156169C9.8902 0.559749 10.8899 1.52141 11.2343 3.0581C11.5791 4.59705 11.0787 5.88993 9.86985 6.90472C9.84272 6.92771 9.80843 6.94203 9.75605 6.97293C9.84272 7.00232 9.88266 7.01513 9.92223 7.02945C11.4367 7.56304 12.6587 8.48286 13.5654 9.81042C13.6419 9.92233 13.686 10.0795 13.6856 10.2155C13.6848 10.4589 13.5017 10.6541 13.2752 10.7114C13.0276 10.7743 12.8038 10.6786 12.6346 10.4371C11.1462 8.31066 8.56566 7.29323 6.06128 7.93647C3.59609 8.56953 2.03943 10.1579 1.42898 12.6441C1.33477 13.0281 1.60834 13.3624 2.00476 13.3684C2.22106 13.3718 2.43736 13.3692 2.65366 13.3692C2.87787 13.3692 3.10208 13.3692 3.33232 13.3692C3.41861 12.2805 3.83726 11.3573 4.61691 10.6119C5.40033 9.8628 6.34202 9.47316 7.4269 9.4513C8.40061 9.43171 9.28125 9.72186 10.0488 10.3214C11.0354 11.092 11.5648 12.1158 11.6733 13.3692C12.112 13.3692 12.5442 13.3707 12.976 13.3688C13.3894 13.3669 13.646 13.0602 13.5801 12.6517C13.5292 12.3355 13.7266 12.0454 14.0296 11.9907C14.3379 11.9353 14.6216 12.1302 14.6898 12.444C14.6996 12.4893 14.7117 12.5345 14.7226 12.5793V13.0025C14.7136 13.0285 14.7007 13.0534 14.6958 13.0801C14.547 13.9005 13.854 14.4951 13.0224 14.4959C9.34267 14.4989 5.66335 14.5 1.98366 14.4959C0.899914 14.4947 0.082958 13.4984 0.318473 12.4399C0.812867 10.2174 2.06656 8.55408 4.07617 7.47561C4.43792 7.28155 4.82567 7.13647 5.20288 6.96765C5.18931 6.95522 5.16708 6.93185 5.14258 6.91188C4.0611 6.02295 3.53882 4.87929 3.69821 3.48655C3.87834 1.91255 4.75634 0.84086 6.23613 0.280522C6.53947 0.16559 6.87221 0.128661 7.19138 0.0559341L7.19176 0.0555573ZM10.2097 3.89352C10.2105 2.40129 8.99599 1.18452 7.50414 1.18377C6.01154 1.18302 4.79515 2.39752 4.7944 3.88937C4.79364 5.38122 6.0089 6.59836 7.5 6.59949C8.99185 6.60025 10.209 5.38499 10.2101 3.89352H10.2097ZM5.60306 11.2514C5.98441 11.5269 6.35521 11.797 6.72864 12.0638C7.21851 12.4139 7.75549 12.4154 8.24649 12.0699C8.5992 11.8212 8.9504 11.5702 9.30197 11.3196C9.33363 11.297 9.36227 11.2706 9.39392 11.2442C8.35426 10.3617 6.63443 10.3625 5.60344 11.2518L5.60306 11.2514ZM10.1472 12.1166C9.48398 12.5187 8.93645 13.0737 8.1926 13.3597H10.5331C10.4976 12.9124 10.368 12.5058 10.1472 12.1166ZM4.47033 13.3639H6.80966C6.05035 13.0858 5.513 12.5171 4.85507 12.12C4.635 12.5051 4.50688 12.9121 4.47033 13.3639Z" fill="#266578"/>
</svg>
