<svg width="32" height="32" viewBox="0 0 32 32" fill="none" xmlns="http://www.w3.org/2000/svg">
<path d="M28.8 10.6667H25.6V3.2C25.6 1.43573 24.1643 0 22.4 0H3.2C1.43573 0 0 1.43573 0 3.2V18.1333C0 19.8976 1.43573 21.3333 3.2 21.3333H4.26667V25.6C4.26667 26.0309 4.52587 26.4203 4.9248 26.5856C5.05707 26.64 5.19573 26.6667 5.33333 26.6667C5.61067 26.6667 5.88373 26.5579 6.08747 26.3541L10.6667 21.7749V24.5333C10.6667 26.2976 12.1024 27.7333 13.8667 27.7333H21.9584L25.9125 31.6875C26.1163 31.8912 26.3893 32 26.6667 32C26.8043 32 26.9429 31.9733 27.0752 31.9189C27.4741 31.7536 27.7333 31.3643 27.7333 30.9333V27.7333H28.8C30.5643 27.7333 32 26.2976 32 24.5333V13.8667C32 12.1024 30.5643 10.6667 28.8 10.6667ZM6.4 23.0251V20.2667C6.4 19.6779 5.9232 19.2 5.33333 19.2H3.2C2.6112 19.2 2.13333 18.7211 2.13333 18.1333V3.2C2.13333 2.61227 2.6112 2.13333 3.2 2.13333H22.4C22.9888 2.13333 23.4667 2.61227 23.4667 3.2V18.1333C23.4667 18.7211 22.9888 19.2 22.4 19.2H10.6667C10.3829 19.2 10.112 19.312 9.91253 19.5125L6.4 23.0251ZM29.8667 24.5333C29.8667 25.1211 29.3888 25.6 28.8 25.6H26.6667C26.0768 25.6 25.6 26.0779 25.6 26.6667V28.3584L23.1541 25.9125C22.9547 25.712 22.6837 25.6 22.4 25.6H13.8667C13.2779 25.6 12.8 25.1211 12.8 24.5333V21.3333H22.4C24.1643 21.3333 25.6 19.8976 25.6 18.1333V12.8H28.8C29.3888 12.8 29.8667 13.2789 29.8667 13.8667V24.5333Z" fill="white"/>
<path d="M7.46742 11.7333C8.05653 11.7333 8.53409 11.2558 8.53409 10.6667C8.53409 10.0776 8.05653 9.60001 7.46742 9.60001C6.87832 9.60001 6.40076 10.0776 6.40076 10.6667C6.40076 11.2558 6.87832 11.7333 7.46742 11.7333Z" fill="white"/>
<path d="M12.8007 11.7333C13.3898 11.7333 13.8673 11.2558 13.8673 10.6667C13.8673 10.0776 13.3898 9.60001 12.8007 9.60001C12.2116 9.60001 11.734 10.0776 11.734 10.6667C11.734 11.2558 12.2116 11.7333 12.8007 11.7333Z" fill="white"/>
<path d="M18.134 11.7333C18.7232 11.7333 19.2007 11.2558 19.2007 10.6667C19.2007 10.0776 18.7232 9.60001 18.134 9.60001C17.5449 9.60001 17.0674 10.0776 17.0674 10.6667C17.0674 11.2558 17.5449 11.7333 18.134 11.7333Z" fill="white"/>
</svg>
