<svg width="23" height="32" viewBox="0 0 23 32" fill="none" xmlns="http://www.w3.org/2000/svg">
<path d="M11.4749 0.00166658C12.2232 0.254154 12.529 0.78496 12.4765 1.55992C12.454 1.89074 12.4732 2.22489 12.4732 2.54654C13.0298 2.69903 13.5773 2.81652 14.1031 2.99818C17.5546 4.19062 19.922 7.47045 19.952 11.1244C19.9737 13.6651 19.9628 16.2058 19.9537 18.7465C19.9512 19.3382 20.1411 19.7582 20.6795 20.079C22.1144 20.9339 22.7602 22.6563 22.3102 24.2729C21.8702 25.8528 20.4036 26.9936 18.7546 26.9961C13.7348 27.0044 8.7159 27.0044 3.69615 26.9961C2.03957 26.9936 0.553816 25.8278 0.13217 24.2421C-0.305307 22.5955 0.364658 20.9006 1.82458 20.0448C2.30623 19.7623 2.49538 19.3715 2.49455 18.839C2.49122 16.3192 2.48788 13.7993 2.49455 11.2794C2.50455 7.66544 4.63111 4.49144 7.97094 3.14151C8.6009 2.88652 9.27337 2.73653 9.97833 2.52237C9.97833 2.23822 9.9975 1.89657 9.97417 1.55825C9.9225 0.783293 10.2267 0.251654 10.9758 0H11.4749V0.00166658ZM11.2291 24.5004C13.7031 24.5004 16.1772 24.5021 18.6504 24.4996C19.2787 24.4996 19.747 24.1496 19.9078 23.5796C20.0637 23.0288 19.8487 22.4763 19.3162 22.168C18.0171 21.4139 17.4613 20.2606 17.4621 18.7949C17.4621 16.3267 17.4688 13.8585 17.4571 11.3902C17.4546 10.9344 17.4155 10.4736 17.3338 10.0253C16.7305 6.72549 13.3873 4.45727 10.1058 5.10807C7.06182 5.71137 4.99192 8.22625 4.98775 11.3361C4.98442 13.8668 5.00025 16.3975 4.98192 18.9282C4.97192 20.3173 4.40612 21.4197 3.17868 22.1405C3.02036 22.233 2.8662 22.3564 2.75537 22.5005C2.45122 22.8963 2.39789 23.3405 2.62038 23.7921C2.85286 24.2654 3.24951 24.5004 3.77532 24.5004C6.25936 24.5029 8.74423 24.5012 11.2283 24.5012L11.2291 24.5004Z" fill="#F7F7F7"/>
<path d="M8.48093 32C8.39593 31.9634 8.31094 31.9276 8.22678 31.8892C7.70097 31.6517 7.39765 31.0859 7.50015 30.5368C7.60848 29.9577 8.08512 29.511 8.66925 29.5068C10.3733 29.4943 12.0782 29.4943 13.7823 29.5068C14.3665 29.511 14.8423 29.9568 14.9514 30.5368C15.0548 31.0859 14.7506 31.6517 14.2248 31.8892C14.1406 31.9276 14.0556 31.9634 13.9706 32H8.48176H8.48093Z" fill="#F7F7F7"/>
</svg>
