<svg width="12" height="13" viewBox="0 0 12 13" fill="none" xmlns="http://www.w3.org/2000/svg">
<g clip-path="url(#clip0_122_151)">
<path d="M11.0915 11.582L11.5465 11.0575C11.8361 10.767 11.9987 10.3735 11.9987 9.96325C11.9987 9.55303 11.8361 9.15954 11.5465 8.869C11.531 8.8535 10.328 7.928 10.328 7.928C10.0393 7.65317 9.65577 7.50013 9.25715 7.50069C8.85853 7.50125 8.47545 7.65536 8.1875 7.931L7.2345 8.734C6.45659 8.41205 5.74994 7.93959 5.15514 7.34376C4.56034 6.74793 4.08911 6.04047 3.7685 5.262L4.5685 4.312C4.84436 4.02409 4.99865 3.64094 4.9993 3.2422C4.99995 2.84347 4.84691 2.45982 4.572 2.171C4.572 2.171 3.6455 0.969502 3.63 0.954002C3.34473 0.666877 2.95794 0.503513 2.55321 0.49921C2.14849 0.494906 1.75831 0.650008 1.467 0.931002L0.891999 1.431C-2.505 5.372 4.81 12.6305 8.881 12.5C9.29209 12.5024 9.69949 12.4224 10.0792 12.2647C10.4588 12.107 10.803 11.8749 11.0915 11.582Z" fill="#CDCDCD"/>
</g>
<defs>
<clipPath id="clip0_122_151">
<rect width="12" height="12" fill="white" transform="translate(0 0.5)"/>
</clipPath>
</defs>
</svg>
