<svg width="16" height="16" viewBox="0 0 16 16" fill="none" xmlns="http://www.w3.org/2000/svg">
<path d="M2.10128 1.87123L2.73323 1.32372C3.46147 0.595707 4.6411 0.595707 5.36934 1.32372C5.38739 1.34177 6.50082 2.79178 6.50082 2.79178C7.18693 3.51378 7.18693 4.65092 6.50082 5.3669L5.80267 6.24533C6.68138 8.23684 8.04758 9.60863 9.97351 10.4269L10.8522 9.72295C11.5684 9.03103 12.7119 9.03103 13.4281 9.72295C13.4281 9.72295 14.8786 10.836 14.8967 10.8541C15.6249 11.5821 15.6249 12.7613 14.9267 13.4593L14.3249 14.1512C13.6328 14.8431 12.6999 15.2222 11.6888 15.2222C7.09064 15.2222 0.999893 9.1273 0.999893 4.5366C0.999893 3.53183 1.37906 2.59323 2.10128 1.87725V1.87123ZM11.6888 14.0128C12.3749 14.0128 13.0068 13.7601 13.4402 13.3209L14.042 12.629C14.2888 12.3823 14.3008 11.9792 14.0661 11.7205C14.0661 11.7205 12.6277 10.6134 12.6096 10.5954C12.3629 10.3487 11.9295 10.3487 11.6767 10.5954C11.6587 10.6134 10.449 11.5821 10.449 11.5821C10.2804 11.7145 10.0578 11.7506 9.85915 11.6723C7.36749 10.7217 5.57999 8.94078 4.55082 6.37168C4.47258 6.17313 4.50267 5.9445 4.6411 5.77002C4.6411 5.77002 5.61008 4.55465 5.62212 4.54262C5.88091 4.28391 5.88091 3.86876 5.62212 3.61004C5.60406 3.59199 4.49665 2.15402 4.49665 2.15402C4.23786 1.91937 3.83462 1.92538 3.55776 2.20215L2.92582 2.74966C2.46239 3.21294 2.2036 3.84469 2.2036 4.53059C2.2036 8.71817 8.08369 14.0128 11.6888 14.0128Z" fill="#FFA51E"/>
<path d="M1.37905 1.87123L2.011 1.32372C2.73924 0.595707 3.91887 0.595707 4.64711 1.32372C4.66516 1.34177 5.77859 2.79178 5.77859 2.79178C6.4647 3.51378 6.4647 4.65092 5.77859 5.3669L5.08044 6.24533C5.95915 8.23684 7.32535 9.60863 9.25128 10.4269L10.13 9.72295C10.8462 9.03103 11.9897 9.03103 12.7059 9.72295C12.7059 9.72295 14.1564 10.836 14.1744 10.8541C14.9027 11.5821 14.9027 12.7613 14.2045 13.4593L13.6027 14.1512C12.9105 14.8431 11.9777 15.2222 10.9666 15.2222C6.36841 15.2222 0.277664 9.1273 0.277664 4.5366C0.277664 3.53183 0.656831 2.59323 1.37905 1.87725V1.87123ZM10.9666 14.0128C11.6527 14.0128 12.2846 13.7601 12.7179 13.3209L13.3198 12.629C13.5666 12.3823 13.5786 11.9792 13.3439 11.7205C13.3439 11.7205 11.9054 10.6134 11.8874 10.5954C11.6406 10.3487 11.2073 10.3487 10.9545 10.5954C10.9365 10.6134 9.72674 11.5821 9.72674 11.5821C9.55822 11.7145 9.33554 11.7506 9.13692 11.6723C6.64526 10.7217 4.85776 8.94078 3.82859 6.37168C3.75035 6.17313 3.78044 5.9445 3.91887 5.77002C3.91887 5.77002 4.88785 4.55465 4.89989 4.54262C5.15868 4.28391 5.15868 3.86876 4.89989 3.61004C4.88183 3.59199 3.77442 2.15402 3.77442 2.15402C3.51563 1.91937 3.11239 1.92538 2.83554 2.20215L2.20359 2.74966C1.74016 3.21294 1.48137 3.84469 1.48137 4.53059C1.48137 8.71817 7.36146 14.0128 10.9666 14.0128Z" fill="#266578"/>
</svg>
